<svg width="2826" height="900" viewBox="0 0 2826 900" fill="none" xmlns="http://www.w3.org/2000/svg">
<path d="M126.9 360.45C125.1 371.25 124.2 379.5 124.2 385.2C124.2 414.3 128.7 436.05 137.7 450.45C119.7 463.95 100.95 470.7 81.45 470.7C61.95 470.7 48 465.15 39.6 454.05C31.2 442.65 27 425.85 27 403.65C27 381.15 36.45 317.7 55.35 213.3L31.5 165.15C65.4 143.25 96.3 132.3 124.2 132.3C132 132.3 140.55 133.8 149.85 136.8C159.15 139.5 165.75 142.65 169.65 146.25C191.85 137.55 212.4 133.2 231.3 133.2C259.5 133.2 281.7 143.1 297.9 162.9C314.4 182.4 322.65 206.1 322.65 234C322.65 267.6 310.5 297.6 286.2 324C274.5 336.9 258.75 347.25 238.95 355.05C219.15 362.85 198.9 366.75 178.2 366.75C157.8 366.75 140.7 364.65 126.9 360.45ZM135.45 309.15C139.65 310.05 144 310.5 148.5 310.5C167.7 310.5 184.8 303.75 199.8 290.25C214.8 276.75 222.3 260.1 222.3 240.3C222.3 226.5 218.25 214.8 210.15 205.2C202.35 195.6 191.25 190.8 176.85 190.8C170.85 190.8 163.95 192 156.15 194.4C150.15 235.5 143.25 273.75 135.45 309.15ZM347.309 414.45C347.309 402.45 350.309 379.2 356.309 344.7C362.609 310.2 369.059 278.7 375.659 250.2L352.259 214.2C389.759 197.4 416.009 189 431.009 189C446.309 189 453.959 198.6 453.959 217.8C453.959 228.3 449.009 250.2 439.109 283.5L443.609 285.75C465.209 221.25 492.059 189 524.159 189C538.859 189 550.109 193.5 557.909 202.5C565.709 211.5 569.609 221.55 569.609 232.65C569.609 249.15 563.459 263.25 551.159 274.95C538.859 286.65 520.409 292.5 495.809 292.5C458.609 292.5 440.009 330.75 440.009 407.25C440.009 425.85 443.159 439.5 449.459 448.2C430.859 462.9 413.759 470.25 398.159 470.25C364.259 470.25 347.309 451.65 347.309 414.45ZM802.842 223.2C819.642 223.2 834.042 229.95 846.042 243.45C858.342 256.95 864.492 276.6 864.492 302.4C864.492 327.9 859.992 351.6 850.992 373.5C841.992 395.1 830.142 412.8 815.442 426.6C800.742 440.4 784.092 451.2 765.492 459C746.892 466.5 727.842 470.25 708.342 470.25C669.042 470.25 637.992 459.45 615.192 437.85C592.392 416.25 580.992 387.6 580.992 351.9C580.992 303.6 596.442 264.45 627.342 234.45C658.542 204.15 698.142 189 746.142 189C756.942 189 767.742 190.2 778.542 192.6C781.842 202.5 783.642 213.75 783.942 226.35C790.242 224.25 796.542 223.2 802.842 223.2ZM747.492 285.75C747.492 277.35 749.442 267.9 753.342 257.4C757.542 246.9 764.142 238.5 773.142 232.2C733.542 240.6 706.242 256.65 691.242 280.35C678.342 300.75 671.892 321.75 671.892 343.35C671.892 364.95 676.242 382.35 684.942 395.55C693.942 408.45 705.342 414.9 719.142 414.9C749.742 414.9 771.342 394.95 783.942 355.05C759.642 340.05 747.492 316.95 747.492 285.75ZM1076.82 426.15L1072.32 423.9C1048.92 454.8 1021.02 470.25 988.622 470.25C964.622 470.25 944.222 460.8 927.422 441.9C910.922 422.7 902.672 396.9 902.672 364.5C902.672 324.3 916.772 287.7 944.972 254.7C958.772 238.5 977.222 225.45 1000.32 215.55C1023.42 205.35 1049.22 200.25 1077.72 200.25C1083.12 200.25 1092.72 200.85 1106.52 202.05C1107.12 195.75 1108.47 188.1 1110.57 179.1L1085.37 143.1C1122.87 121.2 1152.42 110.25 1174.02 110.25C1186.32 110.25 1195.02 112.8 1200.12 117.9C1205.22 122.7 1207.77 132 1207.77 145.8C1207.77 159.3 1201.02 197.7 1187.52 261C1174.32 324.3 1167.72 369.3 1167.72 396C1167.72 422.4 1172.37 439.8 1181.67 448.2C1164.87 462.9 1147.32 470.25 1129.02 470.25C1111.02 470.25 1097.82 465.75 1089.42 456.75C1081.02 447.45 1076.82 437.25 1076.82 426.15ZM987.272 347.4C987.272 364.5 991.622 378 1000.32 387.9C1009.32 397.8 1020.42 402.75 1033.62 402.75C1050.72 402.75 1066.32 394.65 1080.42 378.45C1085.22 325.05 1091.97 278.85 1100.67 239.85C1066.17 239.85 1038.57 250.95 1017.87 273.15C997.472 295.35 987.272 320.1 987.272 347.4ZM1319.39 470.25C1292.99 470.25 1274.54 463.8 1264.04 450.9C1253.54 438 1248.29 421.8 1248.29 402.3C1248.29 382.5 1251.59 355.5 1258.19 321.3C1264.79 287.1 1268.09 262.35 1268.09 247.05C1268.09 231.75 1264.94 219.75 1258.64 211.05C1286.54 196.35 1310.09 189 1329.29 189C1341.59 189 1350.44 191.55 1355.84 196.65C1361.54 201.45 1364.39 209.4 1364.39 220.5C1364.39 231.6 1359.74 258.9 1350.44 302.4C1341.44 345.6 1336.94 372.3 1336.94 382.5C1336.94 392.7 1339.79 400.8 1345.49 406.8C1351.19 412.5 1358.69 415.35 1367.99 415.35C1377.29 415.35 1387.19 411.75 1397.69 404.55C1408.19 397.05 1416.74 386.55 1423.34 373.05C1427.54 348.75 1435.79 310.35 1448.09 257.85L1421.09 221.85C1451.39 199.95 1480.19 189 1507.49 189C1520.99 189 1530.59 191.55 1536.29 196.65C1542.29 201.45 1545.29 208.95 1545.29 219.15C1545.29 229.05 1539.74 257.7 1528.64 305.1C1517.84 352.5 1512.44 386.25 1512.44 406.35C1512.44 426.15 1517.09 440.1 1526.39 448.2C1509.59 462.9 1491.89 470.25 1473.29 470.25C1454.99 470.25 1441.79 466.2 1433.69 458.1C1425.59 450 1421.54 439.35 1421.54 426.15L1417.04 423.9C1407.14 438.3 1393.34 449.7 1375.64 458.1C1358.24 466.2 1339.49 470.25 1319.39 470.25ZM1582.95 351.9C1582.95 303.9 1599.45 264.75 1632.45 234.45C1665.45 204.15 1707 189 1757.1 189C1782.9 189 1803.3 193.95 1818.3 203.85C1833.3 213.45 1840.8 225.6 1840.8 240.3C1840.8 255 1835.7 266.25 1825.5 274.05C1815.6 281.85 1804.65 285.75 1792.65 285.75C1780.95 285.75 1770.15 282.6 1760.25 276.3C1750.65 270 1743.15 260.85 1737.75 248.85C1718.85 256.65 1703.85 270.45 1692.75 290.25C1681.95 310.05 1676.55 329.85 1676.55 349.65C1676.55 369.45 1680.45 385.5 1688.25 397.8C1696.05 410.1 1706.25 416.25 1718.85 416.25C1731.45 416.25 1741.65 412.05 1749.45 403.65C1757.55 395.25 1761.6 382.8 1761.6 366.3C1805.4 366.3 1827.3 376.65 1827.3 397.35C1827.3 415.05 1816.2 431.7 1794 447.3C1771.8 462.6 1742.55 470.25 1706.25 470.25C1669.95 470.25 1640.25 459.45 1617.15 437.85C1594.35 415.95 1582.95 387.3 1582.95 351.9ZM1879.81 296.55C1877.71 288.15 1876.66 280.35 1876.66 273.15C1876.66 258.45 1881.01 247.35 1889.71 239.85C1898.41 232.35 1909.66 228.6 1923.46 228.6C1923.46 213 1919.41 196.05 1911.31 177.75C1926.01 166.95 1939.36 158.85 1951.36 153.45C1963.66 147.75 1976.56 144.9 1990.06 144.9C2003.56 144.9 2012.86 147.45 2017.96 152.55C2023.36 157.35 2026.06 164.85 2026.06 175.05C2026.06 185.25 2023.96 201.15 2019.76 222.75C2031.76 220.95 2043.91 218.4 2056.21 215.1C2058.31 221.4 2059.36 229.5 2059.36 239.4C2059.36 249.3 2055.46 258.6 2047.66 267.3C2040.16 275.7 2029.06 279.9 2014.36 279.9H2007.61C1996.81 328.8 1991.41 366.45 1991.41 392.85C1991.41 419.25 1996.06 437.7 2005.36 448.2C1988.56 462.9 1970.71 470.25 1951.81 470.25C1932.91 470.25 1919.26 464.7 1910.86 453.6C1902.76 442.2 1898.71 424.65 1898.71 400.95C1898.71 386.55 1903.96 348.75 1914.46 287.55C1902.46 289.65 1890.91 292.65 1879.81 296.55ZM2231.97 248.85C2220.87 252.15 2212.02 256.95 2205.42 263.25C2198.82 269.25 2192.97 277.95 2187.87 289.35C2238.57 296.85 2274.27 307.65 2294.97 321.75C2315.67 335.85 2326.02 355.95 2326.02 382.05C2326.02 398.55 2321.37 412.95 2312.07 425.25C2302.77 437.25 2291.07 446.4 2276.97 452.7C2249.37 464.4 2222.22 470.25 2195.52 470.25C2119.62 470.25 2081.67 453.9 2081.67 421.2C2081.67 404.7 2089.02 388.2 2103.72 371.7C2111.22 382.2 2122.47 391.2 2137.47 398.7C2152.77 406.2 2167.62 409.95 2182.02 409.95C2206.92 409.95 2221.92 399 2227.02 377.1C2181.42 371.7 2148.42 361.5 2128.02 346.5C2107.62 331.5 2097.42 310.35 2097.42 283.05C2097.42 261.45 2104.47 243.3 2118.57 228.6C2132.97 213.9 2150.67 203.7 2171.67 198C2192.97 192 2216.82 189 2243.22 189C2269.92 189 2291.82 194.1 2308.92 204.3C2326.32 214.2 2335.02 226.35 2335.02 240.75C2335.02 255.15 2329.92 266.25 2319.72 274.05C2309.82 281.85 2298.87 285.75 2286.87 285.75C2275.17 285.75 2264.37 282.6 2254.47 276.3C2244.87 270 2237.37 260.85 2231.97 248.85Z" fill="black"/>
<rect x="1170" y="616.328" width="714.438" height="285" transform="rotate(-7.25868 1170 616.328)" fill="#3082A5"/>
<path d="M1414.9 642.475L1462.36 636.43L1435.84 812.311L1401.39 816.699L1376.75 747.034L1368.07 820.942L1331.34 825.62L1266.14 661.422L1311.32 655.668L1339.05 729.577L1347.14 651.106L1379.31 647.008L1406.81 720.946L1414.9 642.475ZM1514.35 629.808L1535.97 799.557L1497.64 804.439L1476.02 634.69L1514.35 629.808ZM1643.56 613.351L1648.44 651.681L1609.88 656.593L1626.62 788.011L1588.29 792.893L1571.55 661.475L1532.99 666.386L1528.11 628.056L1643.56 613.351ZM1739.56 601.123L1777.89 596.241L1799.51 765.99L1761.18 770.872L1752.81 705.163L1707.41 710.946L1715.78 776.655L1677.45 781.537L1655.83 611.788L1694.16 606.906L1702.53 672.615L1747.93 666.832L1739.56 601.123Z" fill="white"/>
<rect x="1878.71" y="526.06" width="918.562" height="285" transform="rotate(-7.25868 1878.71 526.06)" fill="#FFA928"/>
<path d="M2087.3 595.783L2021.59 604.152L2025.08 631.531L2073.45 625.37L2078.33 663.701L2029.96 669.862L2038.33 735.571L2000 740.453L1978.38 570.704L2082.42 557.453L2087.3 595.783ZM2130.78 551.293L2152.41 721.041L2114.08 725.923L2092.45 556.175L2130.78 551.293ZM2201.67 675.815L2247.07 670.032L2251.95 708.362L2168.22 719.027L2146.6 549.279L2184.93 544.397L2201.67 675.815ZM2335.3 525.243L2340.18 563.574L2301.62 568.485L2318.36 699.903L2280.03 704.785L2263.29 573.367L2224.74 578.278L2219.85 539.948L2335.3 525.243ZM2456.49 548.759L2390.78 557.129L2394.27 584.508L2442.64 578.347L2447.52 616.677L2399.15 622.838L2402.64 650.217L2468.35 641.847L2473.23 680.178L2369.19 693.429L2347.57 523.681L2451.61 510.429L2456.49 548.759ZM2550 670.4L2520.15 618.092L2519.69 618.15L2526.73 673.364L2488.39 678.246L2466.77 508.498L2518.34 501.93L2518.57 501.901C2528.3 500.661 2536.56 501.155 2543.33 503.384C2550.24 505.441 2555.92 508.737 2560.36 513.272C2564.93 517.635 2568.48 523.057 2571.01 529.536C2573.51 535.864 2575.23 542.678 2576.16 549.979C2577.13 557.584 2576.7 564.518 2574.87 570.779C2573.19 577.021 2570.86 582.418 2567.89 586.971C2565.05 591.352 2562.01 594.83 2558.78 597.405C2555.54 599.828 2552.93 601.165 2550.95 601.417L2594.03 664.791L2550 670.4ZM2710.62 609.83C2711.01 615.345 2710.07 620.72 2707.8 625.955C2705.66 631.019 2702.32 635.696 2697.76 639.986C2693.34 644.104 2687.77 647.674 2681.04 650.695C2674.3 653.563 2666.51 655.559 2657.69 656.683C2650.85 657.555 2644.27 657.465 2637.95 656.415C2631.79 655.345 2626.06 653.447 2620.76 650.721C2615.47 647.995 2610.77 644.497 2606.67 640.227C2602.71 635.786 2599.58 630.62 2597.28 624.73L2631.84 604.794C2631.55 604.984 2631.99 606.01 2633.16 607.872C2634.48 609.713 2636.19 611.659 2638.31 613.708C2640.4 615.605 2642.86 617.301 2645.68 618.797C2648.63 620.121 2651.6 620.362 2654.58 619.518C2657.13 618.884 2659.49 617.424 2661.68 615.137C2664.01 612.83 2664.83 609.557 2664.13 605.317C2663.65 602.751 2662.29 600.529 2660.04 598.651C2657.92 596.602 2654.96 594.584 2651.15 592.596C2642.74 588.412 2634.94 584.845 2627.76 581.895C2620.72 578.773 2614.42 575.403 2608.85 571.783C2603.44 568.144 2598.96 563.847 2595.39 558.891C2591.97 553.916 2589.75 547.398 2588.72 539.337C2587.77 531.884 2588.46 525.149 2590.79 519.134C2593.11 513.119 2596.54 507.89 2601.08 503.448C2605.61 499.006 2611.02 495.38 2617.31 492.569C2623.6 489.759 2630.24 487.832 2637.21 486.789C2645.58 485.723 2653.03 486.01 2659.58 487.65C2666.26 489.118 2671.96 491.405 2676.68 494.514C2681.56 497.602 2685.52 501.349 2688.55 505.754C2691.57 510.008 2693.74 514.367 2695.09 518.834L2663.23 536.339C2662.56 534.724 2661.65 532.985 2660.48 531.124C2659.3 529.111 2657.76 527.374 2655.88 525.914C2654.12 524.283 2652.03 523.004 2649.59 522.078C2647.31 521.132 2644.72 520.843 2641.83 521.212C2638.79 521.599 2636.1 522.946 2633.76 525.253C2631.56 527.388 2630.71 530.357 2631.19 534.16C2631.56 537.05 2633.03 539.49 2635.6 541.481C2638.3 543.3 2642.4 545.716 2647.88 548.727C2655.38 551.791 2662.58 554.893 2669.47 558.034C2676.52 561.155 2682.87 564.906 2688.53 569.286C2694.19 573.667 2698.94 578.857 2702.8 584.858C2706.64 590.707 2709.11 597.966 2710.21 606.636L2710.62 609.83Z" fill="white"/>
</svg>
