<svg width="3096" height="949" viewBox="0 0 3096 949" fill="none" xmlns="http://www.w3.org/2000/svg">
<path d="M126.9 360.45C125.1 371.25 124.2 379.5 124.2 385.2C124.2 414.3 128.7 436.05 137.7 450.45C119.7 463.95 100.95 470.7 81.45 470.7C61.95 470.7 48 465.15 39.6 454.05C31.2 442.65 27 425.85 27 403.65C27 381.15 36.45 317.7 55.35 213.3L31.5 165.15C65.4 143.25 96.3 132.3 124.2 132.3C132 132.3 140.55 133.8 149.85 136.8C159.15 139.5 165.75 142.65 169.65 146.25C191.85 137.55 212.4 133.2 231.3 133.2C259.5 133.2 281.7 143.1 297.9 162.9C314.4 182.4 322.65 206.1 322.65 234C322.65 267.6 310.5 297.6 286.2 324C274.5 336.9 258.75 347.25 238.95 355.05C219.15 362.85 198.9 366.75 178.2 366.75C157.8 366.75 140.7 364.65 126.9 360.45ZM135.45 309.15C139.65 310.05 144 310.5 148.5 310.5C167.7 310.5 184.8 303.75 199.8 290.25C214.8 276.75 222.3 260.1 222.3 240.3C222.3 226.5 218.25 214.8 210.15 205.2C202.35 195.6 191.25 190.8 176.85 190.8C170.85 190.8 163.95 192 156.15 194.4C150.15 235.5 143.25 273.75 135.45 309.15ZM514.709 403.65L510.209 401.4C502.109 423 490.409 439.95 475.109 452.25C460.109 464.25 443.309 470.25 424.709 470.25C399.209 470.25 378.809 460.65 363.509 441.45C348.209 422.25 340.559 396.6 340.559 364.5C340.559 314.7 357.209 273 390.509 239.4C424.109 205.8 465.809 189 515.609 189C528.509 189 540.359 190.2 551.159 192.6C552.959 201 554.009 208.35 554.309 214.65C569.309 205.05 584.759 200.25 600.659 200.25C622.559 200.25 633.509 212.1 633.509 235.8C633.509 244.2 628.709 269.55 619.109 311.85C609.809 354.15 605.159 385.5 605.159 405.9C605.159 426.3 609.809 440.4 619.109 448.2C602.309 462.9 584.759 470.25 566.459 470.25C548.459 470.25 535.259 464.85 526.859 454.05C518.759 443.25 514.709 426.45 514.709 403.65ZM425.159 342.45C425.159 357.15 428.159 368.55 434.159 376.65C440.459 384.45 449.309 388.35 460.709 388.35C472.109 388.35 483.359 384.15 494.459 375.75C505.559 367.35 514.859 355.8 522.359 341.1C525.059 310.8 530.909 274.95 539.909 233.55C509.609 233.55 482.909 244.5 459.809 266.4C436.709 288.3 425.159 313.65 425.159 342.45ZM761.456 333C761.456 348.3 765.656 360.75 774.056 370.35C782.756 379.65 793.406 384.3 806.006 384.3C823.106 384.3 838.406 376.2 851.906 360C857.006 333.3 863.606 291.15 871.706 233.55C838.106 233.55 811.256 243.3 791.156 262.8C771.356 282.3 761.456 305.7 761.456 333ZM880.706 503.55C866.606 522.45 848.906 537.3 827.606 548.1C806.306 559.2 783.806 564.75 760.106 564.75C736.706 564.75 717.806 560.25 703.406 551.25C689.306 542.55 682.256 530.7 682.256 515.7C682.256 500.7 688.406 484.95 700.706 468.45C714.506 488.85 735.206 499.05 762.806 499.05C780.806 499.05 797.456 491.25 812.756 475.65C828.356 460.35 838.706 437.85 843.806 408.15L839.306 405.9C818.006 437.1 790.706 452.7 757.406 452.7C732.206 452.7 712.406 442.95 698.006 423.45C683.606 403.95 676.406 378 676.406 345.6C676.406 314.4 684.956 285.9 702.056 260.1C721.556 230.4 748.706 209.85 783.506 198.45C802.706 192.15 821.006 189 838.406 189C855.806 189 870.506 190.2 882.506 192.6C884.306 200.7 885.356 208.05 885.656 214.65C899.756 205.05 914.006 200.25 928.406 200.25C949.106 200.25 959.456 210.9 959.456 232.2C959.456 253.5 958.106 275.4 955.406 297.9C952.706 320.1 948.506 343.95 942.806 369.45C937.106 394.95 928.856 419.1 918.056 441.9C907.556 464.4 895.106 484.95 880.706 503.55ZM1151.84 117.9C1151.84 129.3 1145.84 139.2 1133.84 147.6C1121.84 155.7 1108.19 159.75 1092.89 159.75C1077.59 159.75 1065.44 156.75 1056.44 150.75C1047.74 144.75 1043.39 136.65 1043.39 126.45C1043.39 112.65 1049.84 101.85 1062.74 94.0501C1075.64 86.2501 1089.29 82.3501 1103.69 82.3501C1118.09 82.3501 1129.64 85.3501 1138.34 91.3501C1147.34 97.3501 1151.84 106.2 1151.84 117.9ZM1064.09 470.25C1045.49 470.25 1031.99 465.6 1023.59 456.3C1015.19 447 1010.99 432.9 1010.99 414C1010.99 394.8 1020.59 343.65 1039.79 260.55L1014.59 222.75C1052.09 200.25 1081.64 189 1103.24 189C1115.54 189 1124.24 191.7 1129.34 197.1C1134.44 202.2 1136.99 210.6 1136.99 222.3C1136.99 226.8 1131.44 253.2 1120.34 301.5C1109.24 349.8 1103.69 384.3 1103.69 405C1103.69 425.7 1108.34 440.1 1117.64 448.2C1100.84 462.9 1082.99 470.25 1064.09 470.25ZM1232.7 470.25C1215 470.25 1201.95 465.6 1193.55 456.3C1185.15 447 1180.95 434.7 1180.95 419.4C1180.95 404.1 1183.95 379.2 1189.95 344.7C1196.25 310.2 1202.7 278.7 1209.3 250.2L1185.9 214.2C1215.6 197.4 1243.05 189 1268.25 189C1293.45 189 1306.05 200.4 1306.05 223.2C1306.05 238.2 1302.6 253.5 1295.7 269.1L1300.2 271.35C1332.3 216.45 1373.1 189 1422.6 189C1458.9 189 1477.05 207.15 1477.05 243.45C1477.05 259.05 1472.55 285.45 1463.55 322.65C1454.85 359.85 1450.5 387.9 1450.5 406.8C1450.5 425.7 1453.65 439.5 1459.95 448.2C1444.05 462.9 1427.25 470.25 1409.55 470.25C1375.05 470.25 1357.8 451.65 1357.8 414.45C1357.8 400.65 1362.3 377.25 1371.3 344.25C1380.3 311.25 1384.8 289.8 1384.8 279.9C1384.8 266.4 1379.7 259.65 1369.5 259.65C1361.1 259.65 1351.5 263.4 1340.7 270.9C1329.9 278.1 1319.4 288 1309.2 300.6C1299.3 312.9 1290.9 328.65 1284 347.85C1277.1 366.75 1273.65 386.1 1273.65 405.9C1273.65 425.4 1276.8 439.5 1283.1 448.2C1267.2 462.9 1250.4 470.25 1232.7 470.25ZM1689.37 403.65L1684.87 401.4C1676.77 423 1665.07 439.95 1649.77 452.25C1634.77 464.25 1617.97 470.25 1599.37 470.25C1573.87 470.25 1553.47 460.65 1538.17 441.45C1522.87 422.25 1515.22 396.6 1515.22 364.5C1515.22 314.7 1531.87 273 1565.17 239.4C1598.77 205.8 1640.47 189 1690.27 189C1703.17 189 1715.02 190.2 1725.82 192.6C1727.62 201 1728.67 208.35 1728.97 214.65C1743.97 205.05 1759.42 200.25 1775.32 200.25C1797.22 200.25 1808.17 212.1 1808.17 235.8C1808.17 244.2 1803.37 269.55 1793.77 311.85C1784.47 354.15 1779.82 385.5 1779.82 405.9C1779.82 426.3 1784.47 440.4 1793.77 448.2C1776.97 462.9 1759.42 470.25 1741.12 470.25C1723.12 470.25 1709.92 464.85 1701.52 454.05C1693.42 443.25 1689.37 426.45 1689.37 403.65ZM1599.82 342.45C1599.82 357.15 1602.82 368.55 1608.82 376.65C1615.12 384.45 1623.97 388.35 1635.37 388.35C1646.77 388.35 1658.02 384.15 1669.12 375.75C1680.22 367.35 1689.52 355.8 1697.02 341.1C1699.72 310.8 1705.57 274.95 1714.57 233.55C1684.27 233.55 1657.57 244.5 1634.47 266.4C1611.37 288.3 1599.82 313.65 1599.82 342.45ZM1858.71 296.55C1856.61 288.15 1855.56 280.35 1855.56 273.15C1855.56 258.45 1859.91 247.35 1868.61 239.85C1877.31 232.35 1888.56 228.6 1902.36 228.6C1902.36 213 1898.31 196.05 1890.21 177.75C1904.91 166.95 1918.26 158.85 1930.26 153.45C1942.56 147.75 1955.46 144.9 1968.96 144.9C1982.46 144.9 1991.76 147.45 1996.86 152.55C2002.26 157.35 2004.96 164.85 2004.96 175.05C2004.96 185.25 2002.86 201.15 1998.66 222.75C2010.66 220.95 2022.81 218.4 2035.11 215.1C2037.21 221.4 2038.26 229.5 2038.26 239.4C2038.26 249.3 2034.36 258.6 2026.56 267.3C2019.06 275.7 2007.96 279.9 1993.26 279.9H1986.51C1975.71 328.8 1970.31 366.45 1970.31 392.85C1970.31 419.25 1974.96 437.7 1984.26 448.2C1967.46 462.9 1949.61 470.25 1930.71 470.25C1911.81 470.25 1898.16 464.7 1889.76 453.6C1881.66 442.2 1877.61 424.65 1877.61 400.95C1877.61 386.55 1882.86 348.75 1893.36 287.55C1881.36 289.65 1869.81 292.65 1858.71 296.55ZM2212.68 117.9C2212.68 129.3 2206.68 139.2 2194.68 147.6C2182.68 155.7 2169.03 159.75 2153.73 159.75C2138.43 159.75 2126.28 156.75 2117.28 150.75C2108.58 144.75 2104.23 136.65 2104.23 126.45C2104.23 112.65 2110.68 101.85 2123.58 94.0501C2136.48 86.2501 2150.13 82.3501 2164.53 82.3501C2178.93 82.3501 2190.48 85.3501 2199.18 91.3501C2208.18 97.3501 2212.68 106.2 2212.68 117.9ZM2124.93 470.25C2106.33 470.25 2092.83 465.6 2084.43 456.3C2076.03 447 2071.83 432.9 2071.83 414C2071.83 394.8 2081.43 343.65 2100.63 260.55L2075.43 222.75C2112.93 200.25 2142.48 189 2164.08 189C2176.38 189 2185.08 191.7 2190.18 197.1C2195.28 202.2 2197.83 210.6 2197.83 222.3C2197.83 226.8 2192.28 253.2 2181.18 301.5C2170.08 349.8 2164.53 384.3 2164.53 405C2164.53 425.7 2169.18 440.1 2178.48 448.2C2161.68 462.9 2143.83 470.25 2124.93 470.25ZM2459.14 223.2C2475.94 223.2 2490.34 229.95 2502.34 243.45C2514.64 256.95 2520.79 276.6 2520.79 302.4C2520.79 327.9 2516.29 351.6 2507.29 373.5C2498.29 395.1 2486.44 412.8 2471.74 426.6C2457.04 440.4 2440.39 451.2 2421.79 459C2403.19 466.5 2384.14 470.25 2364.64 470.25C2325.34 470.25 2294.29 459.45 2271.49 437.85C2248.69 416.25 2237.29 387.6 2237.29 351.9C2237.29 303.6 2252.74 264.45 2283.64 234.45C2314.84 204.15 2354.44 189 2402.44 189C2413.24 189 2424.04 190.2 2434.84 192.6C2438.14 202.5 2439.94 213.75 2440.24 226.35C2446.54 224.25 2452.84 223.2 2459.14 223.2ZM2403.79 285.75C2403.79 277.35 2405.74 267.9 2409.64 257.4C2413.84 246.9 2420.44 238.5 2429.44 232.2C2389.84 240.6 2362.54 256.65 2347.54 280.35C2334.64 300.75 2328.19 321.75 2328.19 343.35C2328.19 364.95 2332.54 382.35 2341.24 395.55C2350.24 408.45 2361.64 414.9 2375.44 414.9C2406.04 414.9 2427.64 394.95 2440.24 355.05C2415.94 340.05 2403.79 316.95 2403.79 285.75ZM2615.22 470.25C2597.52 470.25 2584.47 465.6 2576.07 456.3C2567.67 447 2563.47 434.7 2563.47 419.4C2563.47 404.1 2566.47 379.2 2572.47 344.7C2578.77 310.2 2585.22 278.7 2591.82 250.2L2568.42 214.2C2598.12 197.4 2625.57 189 2650.77 189C2675.97 189 2688.57 200.4 2688.57 223.2C2688.57 238.2 2685.12 253.5 2678.22 269.1L2682.72 271.35C2714.82 216.45 2755.62 189 2805.12 189C2841.42 189 2859.57 207.15 2859.57 243.45C2859.57 259.05 2855.07 285.45 2846.07 322.65C2837.37 359.85 2833.02 387.9 2833.02 406.8C2833.02 425.7 2836.17 439.5 2842.47 448.2C2826.57 462.9 2809.77 470.25 2792.07 470.25C2757.57 470.25 2740.32 451.65 2740.32 414.45C2740.32 400.65 2744.82 377.25 2753.82 344.25C2762.82 311.25 2767.32 289.8 2767.32 279.9C2767.32 266.4 2762.22 259.65 2752.02 259.65C2743.62 259.65 2734.02 263.4 2723.22 270.9C2712.42 278.1 2701.92 288 2691.72 300.6C2681.82 312.9 2673.42 328.65 2666.52 347.85C2659.62 366.75 2656.17 386.1 2656.17 405.9C2656.17 425.4 2659.32 439.5 2665.62 448.2C2649.72 462.9 2632.92 470.25 2615.22 470.25Z" fill="black"/>
<rect x="1440" y="665.328" width="714.438" height="285" transform="rotate(-7.25868 1440 665.328)" fill="#3082A5"/>
<path d="M1684.9 691.475L1732.36 685.43L1705.84 861.311L1671.39 865.699L1646.75 796.034L1638.07 869.942L1601.34 874.62L1536.14 710.422L1581.32 704.668L1609.05 778.577L1617.14 700.106L1649.31 696.008L1676.81 769.946L1684.9 691.475ZM1784.35 678.808L1805.97 848.557L1767.64 853.439L1746.02 683.69L1784.35 678.808ZM1913.56 662.351L1918.44 700.681L1879.88 705.593L1896.62 837.011L1858.29 841.893L1841.55 710.475L1802.99 715.386L1798.11 677.056L1913.56 662.351ZM2009.56 650.123L2047.89 645.241L2069.51 814.99L2031.18 819.872L2022.81 754.163L1977.41 759.946L1985.78 825.655L1947.45 830.537L1925.83 660.788L1964.16 655.906L1972.53 721.615L2017.93 715.832L2009.56 650.123Z" fill="white"/>
<rect x="2148.71" y="575.06" width="918.562" height="285" transform="rotate(-7.25868 2148.71 575.06)" fill="#FFA928"/>
<path d="M2357.3 644.783L2291.59 653.152L2295.08 680.531L2343.45 674.37L2348.33 712.701L2299.96 718.862L2308.33 784.571L2270 789.453L2248.38 619.704L2352.42 606.453L2357.3 644.783ZM2400.78 600.293L2422.41 770.041L2384.08 774.923L2362.45 605.175L2400.78 600.293ZM2471.67 724.815L2517.07 719.032L2521.95 757.362L2438.22 768.027L2416.6 598.279L2454.93 593.397L2471.67 724.815ZM2605.3 574.243L2610.18 612.574L2571.62 617.485L2588.36 748.903L2550.03 753.785L2533.29 622.367L2494.74 627.278L2489.85 588.948L2605.3 574.243ZM2726.49 597.759L2660.78 606.129L2664.27 633.508L2712.64 627.347L2717.52 665.677L2669.15 671.838L2672.64 699.217L2738.35 690.847L2743.23 729.178L2639.19 742.429L2617.57 572.681L2721.61 559.429L2726.49 597.759ZM2820 719.4L2790.15 667.092L2789.69 667.15L2796.73 722.364L2758.39 727.246L2736.77 557.498L2788.34 550.93L2788.57 550.901C2798.3 549.661 2806.56 550.155 2813.33 552.384C2820.24 554.441 2825.92 557.737 2830.36 562.272C2834.93 566.635 2838.48 572.057 2841.01 578.536C2843.51 584.864 2845.23 591.678 2846.16 598.979C2847.13 606.584 2846.7 613.518 2844.87 619.779C2843.19 626.021 2840.86 631.418 2837.89 635.971C2835.05 640.352 2832.01 643.83 2828.78 646.405C2825.54 648.828 2822.93 650.165 2820.95 650.417L2864.03 713.791L2820 719.4ZM2980.62 658.83C2981.01 664.345 2980.07 669.72 2977.8 674.955C2975.66 680.019 2972.32 684.696 2967.76 688.986C2963.34 693.104 2957.77 696.674 2951.04 699.695C2944.3 702.563 2936.51 704.559 2927.69 705.683C2920.85 706.555 2914.27 706.465 2907.95 705.415C2901.79 704.345 2896.06 702.447 2890.76 699.721C2885.47 696.995 2880.77 693.497 2876.67 689.227C2872.71 684.786 2869.58 679.62 2867.28 673.73L2901.84 653.794C2901.55 653.984 2901.99 655.01 2903.16 656.872C2904.48 658.713 2906.19 660.659 2908.31 662.708C2910.4 664.605 2912.86 666.301 2915.68 667.797C2918.63 669.121 2921.6 669.362 2924.58 668.518C2927.13 667.884 2929.49 666.424 2931.68 664.137C2934.01 661.83 2934.83 658.557 2934.13 654.317C2933.65 651.751 2932.29 649.529 2930.04 647.651C2927.92 645.602 2924.96 643.584 2921.15 641.596C2912.74 637.412 2904.94 633.845 2897.76 630.895C2890.72 627.773 2884.42 624.403 2878.85 620.783C2873.44 617.144 2868.96 612.847 2865.39 607.891C2861.97 602.916 2859.75 596.398 2858.72 588.337C2857.77 580.884 2858.46 574.149 2860.79 568.134C2863.11 562.119 2866.54 556.89 2871.08 552.448C2875.61 548.006 2881.02 544.38 2887.31 541.569C2893.6 538.759 2900.24 536.832 2907.21 535.789C2915.58 534.723 2923.03 535.01 2929.58 536.65C2936.26 538.118 2941.96 540.405 2946.68 543.514C2951.56 546.602 2955.52 550.349 2958.55 554.754C2961.57 559.008 2963.74 563.367 2965.09 567.834L2933.23 585.339C2932.56 583.724 2931.65 581.985 2930.48 580.124C2929.3 578.111 2927.76 576.374 2925.88 574.914C2924.12 573.283 2922.03 572.004 2919.59 571.078C2917.31 570.132 2914.72 569.843 2911.83 570.212C2908.79 570.599 2906.1 571.946 2903.76 574.253C2901.56 576.388 2900.71 579.357 2901.19 583.16C2901.56 586.05 2903.03 588.49 2905.6 590.481C2908.3 592.3 2912.4 594.716 2917.88 597.727C2925.38 600.791 2932.58 603.893 2939.47 607.034C2946.52 610.155 2952.87 613.906 2958.53 618.286C2964.19 622.667 2968.94 627.857 2972.8 633.858C2976.64 639.707 2979.11 646.966 2980.21 655.636L2980.62 658.83Z" fill="white"/>
</svg>
