<svg width="576" height="618" viewBox="0 0 576 618" fill="none" xmlns="http://www.w3.org/2000/svg">
<path d="M333.333 166.667V333.333H166.667V166.667H333.333ZM375 166.667H500V333.333H375V166.667ZM333.333 500H166.667V375H333.333V500ZM375 500V375H500V500H375ZM333.333 0V125H166.667V0H333.333ZM375 0H500V125H375V0ZM125 166.667V333.333H0V166.667H125ZM125 500H0V375H125V500ZM125 0V125H0V0H125Z" fill="black"/>
<circle cx="376" cy="418" r="200" fill="#FFA928"/>
<path d="M396.3 324.858C396.3 322.339 396.196 320.319 395.986 318.797C395.776 317.275 395.33 315.701 394.647 314.074C393.965 312.447 392.863 311.24 391.342 310.453C389.82 309.666 387.852 309.272 385.438 309.272C381.345 309.272 377.252 310.479 373.159 312.893C362.139 318.98 353.795 328.977 348.128 342.883C342.461 356.789 339.627 370.931 339.627 385.309C339.627 389.927 340.073 394.414 340.965 398.769C341.857 403.125 343.248 407.349 345.137 411.442C347.026 415.535 349.781 418.815 353.402 421.281C357.023 423.748 361.299 424.981 366.232 424.981C366.652 424.981 367.596 425.007 369.066 425.06C370.535 425.112 371.585 425.112 372.214 425.06C372.844 425.007 373.684 424.85 374.733 424.587C375.783 424.325 376.57 423.879 377.094 423.249C377.619 422.619 377.987 421.78 378.196 420.73C379.876 412.649 382.394 400.501 385.753 384.286C389.111 368.071 391.63 355.923 393.309 347.842C395.303 338.291 396.3 330.63 396.3 324.858ZM515 428.129C515 428.864 514.606 429.572 513.819 430.255C513.032 430.937 512.219 431.278 511.379 431.278L510.435 431.12C508.126 430.806 504.872 430.228 500.674 429.389C496.476 428.549 492.698 427.893 489.339 427.421C485.981 426.949 482.675 426.713 479.422 426.713C461.895 426.713 443.476 431.593 424.165 441.353C422.591 442.193 421.489 443.61 420.859 445.604C419.809 449.382 418.524 454.918 417.002 462.212C415.48 469.506 414.3 474.78 413.46 478.034C411.046 487.584 407.373 497.003 402.44 506.292C397.507 515.58 391.604 524.212 384.73 532.188C377.855 540.164 369.748 546.619 360.407 551.552C351.067 556.484 341.359 558.951 331.283 558.951C317.115 558.951 305.859 554.569 297.515 545.806C289.172 537.042 285 525.524 285 511.251C285 505.688 286.023 499.548 288.07 492.832C290.116 486.115 293.422 480.001 297.988 474.491C302.553 468.982 307.669 466.227 313.337 466.227C317.325 466.227 323.622 467.984 332.228 471.5C340.834 475.016 345.189 478.243 345.294 481.182C345.294 481.287 344.428 481.943 342.697 483.15C340.965 484.357 338.892 485.984 336.478 488.03C334.065 490.077 331.651 492.412 329.237 495.036C326.823 497.659 324.776 500.86 323.097 504.639C321.418 508.417 320.578 512.3 320.578 516.288C320.578 519.752 321.444 522.533 323.176 524.632C324.908 526.731 327.453 527.78 330.811 527.78C335.534 527.78 339.994 526.127 344.192 522.821C348.39 519.515 351.88 515.422 354.661 510.542C357.442 505.662 359.961 500.126 362.218 493.934C364.474 487.741 366.18 482.127 367.334 477.089C368.488 472.051 369.328 467.329 369.853 462.921V461.504C369.853 461.294 369.669 461.11 369.302 460.953C368.935 460.795 368.488 460.717 367.964 460.717H366.389L364.815 460.795L363.871 460.874C340.047 460.874 321.575 454.446 308.457 441.589C295.338 428.733 288.778 410.445 288.778 386.726C288.778 375.392 290.589 363.794 294.209 351.935C297.83 340.076 302.868 329.056 309.322 318.875C315.777 308.695 323.963 299.906 333.881 292.507C343.799 285.107 354.53 280.411 366.075 278.417C371.532 277.472 377.094 277 382.762 277C422.013 277 441.639 295.891 441.639 333.674C441.639 343.959 439.645 358.285 435.657 376.651C431.669 395.017 429.412 406.09 428.888 409.868L429.36 410.34C439.96 404.358 449.537 399.74 458.09 396.487C466.644 393.233 475.433 391.606 484.459 391.606C486.768 391.606 489.549 392.289 492.803 393.653C494.797 394.388 498.995 399.766 505.397 409.789C511.799 419.812 515 425.925 515 428.129Z" fill="#3082A5"/>
</svg>
